<svg width="2000" height="2000" viewBox="0 0 2000 2000" fill="none" xmlns="http://www.w3.org/2000/svg">
<path d="M1553.76 1017.51L1622.15 948.631V985.189H1673.73V1017.51H1622.15V1096.79C1622.15 1105.77 1623.55 1113.21 1626.35 1119.11C1629.41 1125.01 1633.74 1129.24 1639.34 1131.81C1644.95 1134.12 1650.17 1135.65 1655.01 1136.42C1660.1 1137.19 1666.34 1137.58 1673.73 1137.58V1169.9C1644.44 1169.9 1622.79 1164.26 1608.78 1152.97C1594.77 1141.68 1587.76 1122.96 1587.76 1096.79V1017.51H1553.76Z" fill="#284907"/>
<path d="M1389.98 985.189H1456.08C1484.36 985.189 1504.61 989.422 1516.83 997.889C1527.79 1005.33 1534.66 1014.31 1537.46 1024.83C1540.52 1035.09 1542.05 1048.69 1542.05 1065.62V1169.9H1508.43V1066C1508.43 1061.38 1508.3 1057.54 1508.04 1054.46C1507.79 1051.12 1506.9 1047.02 1505.37 1042.14C1503.84 1037.01 1501.68 1032.91 1498.87 1029.83C1496.07 1026.49 1492 1023.67 1486.65 1021.36C1481.3 1018.8 1474.8 1017.51 1467.16 1017.51H1423.61V1169.9H1389.98V985.189Z" fill="#284907"/>
<path d="M1300.31 981.34C1343.62 983.136 1365.27 1001.22 1365.27 1035.6C1365.27 1078.44 1337.38 1099.87 1281.59 1099.87H1265.93V1070.23H1284.27C1301.33 1070.23 1313.18 1067.67 1319.8 1062.54C1326.42 1057.15 1329.73 1048.3 1329.73 1035.98C1329.73 1028.03 1326.81 1022.13 1320.95 1018.28C1315.09 1014.18 1307.57 1012.13 1298.4 1012.13C1280.32 1012.13 1266.05 1018.54 1255.61 1031.37C1245.42 1044.19 1240.33 1059.59 1240.33 1077.55C1240.33 1096.53 1245.8 1111.92 1256.76 1123.72C1267.97 1135.53 1282.48 1141.43 1300.31 1141.43C1316.36 1141.43 1329.48 1137.45 1339.67 1129.5L1362.59 1152.2C1345.02 1166.57 1324.26 1173.75 1300.31 1173.75C1271.28 1173.75 1248.1 1165.16 1230.78 1147.97C1213.46 1130.78 1204.79 1108.59 1204.79 1081.39C1204.79 1051.12 1213.33 1026.62 1230.39 1007.89C1247.46 989.164 1270.77 980.314 1300.31 981.34Z" fill="#284907"/>
<path d="M1145.57 900.521H1179.96V1169.9H1090.17C1062.41 1169.9 1039.86 1161.05 1022.54 1143.34C1005.22 1125.39 996.561 1102.81 996.561 1075.62C996.561 1048.93 1005.48 1026.62 1023.31 1008.66C1041.39 990.442 1062.79 981.334 1087.5 981.334C1103.29 981.334 1118.06 985.182 1131.82 992.879V1027.51C1119.08 1018.28 1104.31 1013.66 1087.5 1013.66C1072.21 1013.66 1059.22 1019.43 1048.52 1030.98C1038.08 1042.26 1032.86 1057.14 1032.86 1075.62C1032.86 1094.34 1037.83 1109.35 1047.76 1120.64C1057.95 1131.93 1072.08 1137.57 1090.17 1137.57H1145.57V900.521Z" fill="#284907"/>
<path d="M969.624 1169.91H903.524C875.251 1169.91 855 1165.67 842.774 1157.21C831.821 1149.77 824.816 1140.92 821.76 1130.65C818.958 1120.14 817.557 1106.41 817.557 1089.48V985.191H851.18V1089.09C851.18 1093.71 851.307 1097.69 851.562 1101.02C851.816 1104.1 852.708 1108.21 854.236 1113.34C855.765 1118.21 857.93 1122.32 860.732 1125.65C863.533 1128.73 867.609 1131.55 872.958 1134.12C878.307 1136.43 884.803 1137.58 892.444 1137.58H936.001V985.191H969.624V1169.91Z" fill="#284907"/>
<path d="M676.434 1017.51L744.826 948.631V985.189H796.406V1017.51H744.826V1096.79C744.826 1105.77 746.227 1113.21 749.029 1119.11C752.085 1125.01 756.415 1129.24 762.019 1131.81C767.623 1134.12 772.845 1135.65 777.685 1136.42C782.779 1137.19 789.02 1137.58 796.406 1137.58V1169.9C767.114 1169.9 745.463 1164.26 731.453 1152.97C717.443 1141.68 710.439 1122.96 710.439 1096.79V1017.51H676.434Z" fill="#284907"/>
<path d="M657.034 900.521V934.386H589.406C563.679 934.386 550.816 944.904 550.816 965.941C550.816 977.229 556.42 986.85 567.627 994.803C579.09 1002.5 594.5 1009.94 613.859 1017.12C622.519 1020.46 629.906 1023.92 636.02 1027.51C642.133 1030.85 648.246 1035.34 654.359 1040.98C660.473 1046.63 665.058 1053.94 668.114 1062.92C671.171 1071.64 672.699 1081.77 672.699 1093.32C672.699 1106.15 670.025 1117.69 664.675 1127.95C659.326 1137.96 652.449 1145.91 644.043 1151.81C635.637 1157.45 626.977 1161.82 618.062 1164.89C609.401 1167.72 600.868 1169.26 592.463 1169.51C588.896 1169.77 583.802 1169.9 577.179 1169.9H489.98V1136.03H576.033C593.354 1136.03 607.491 1132.44 618.444 1125.26C629.397 1117.82 634.873 1107.04 634.873 1092.93C634.873 1086.01 633.345 1079.98 630.288 1074.85C627.232 1069.46 622.774 1064.84 616.916 1060.99C611.312 1057.14 605.453 1053.81 599.34 1050.99C593.481 1048.17 586.349 1045.21 577.944 1042.14C575.651 1041.37 573.868 1040.73 572.594 1040.21C532.603 1024.82 512.608 999.677 512.608 964.787C512.608 943.237 519.485 927.203 533.24 916.684C546.995 905.909 564.953 900.521 587.113 900.521H657.034Z" fill="#284907"/>
<path d="M479.927 1169.9H319.369V964.787C319.369 945.802 325.355 930.538 337.327 918.993C345.478 911.297 354.648 906.294 364.836 903.985C375.025 901.676 387.506 900.521 402.28 900.521H492.663V934.386H397.313C369.294 934.386 355.285 946.187 355.285 969.79V1013.66H464.771V1047.52H355.285V1136.03H479.927V1169.9Z" fill="#284907"/>
<path fill-rule="evenodd" clip-rule="evenodd" d="M1627.43 935.713V979.83H1679.01V1022.84H1627.43V1096.77C1627.43 1105.19 1628.74 1111.75 1631.07 1116.7C1633.6 1121.55 1637.05 1124.86 1641.42 1126.88C1646.69 1129.05 1651.47 1130.44 1655.79 1131.13C1660.54 1131.84 1666.49 1132.22 1673.7 1132.22H1679.01V1175.23H1673.7C1643.91 1175.23 1620.82 1169.53 1605.44 1157.13C1589.68 1144.43 1582.43 1123.81 1582.43 1096.77V1022.84H1540.92L1627.43 935.713ZM1566.54 1012.15H1593.04V1096.77C1593.04 1122.07 1599.8 1138.9 1612.07 1148.78C1623.91 1158.33 1642.41 1163.83 1668.4 1164.48V1142.84C1663.06 1142.69 1658.32 1142.32 1654.2 1141.7L1654.17 1141.69L1654.15 1141.69C1648.83 1140.84 1643.21 1139.17 1637.31 1136.74L1637.21 1136.7L1637.12 1136.66C1630.36 1133.56 1625.18 1128.44 1621.62 1121.56L1621.58 1121.48L1621.54 1121.4C1618.29 1114.56 1616.82 1106.27 1616.82 1096.77V1012.15H1668.4V990.519H1616.82V961.52L1566.54 1012.15Z" fill="#284907"/>
<path fill-rule="evenodd" clip-rule="evenodd" d="M1384.68 979.812H1456.09C1484.6 979.812 1506.22 984.026 1519.83 993.441C1531.56 1001.41 1539.36 1011.35 1542.57 1023.33C1545.82 1034.28 1547.36 1048.43 1547.36 1065.59V1175.22H1503.12V1065.97C1503.12 1061.44 1503 1057.75 1502.76 1054.87L1502.76 1054.84C1502.55 1052.06 1501.78 1048.39 1500.31 1043.72L1500.3 1043.68L1500.29 1043.65C1498.93 1039.08 1497.1 1035.75 1494.97 1033.41L1494.9 1033.33L1494.83 1033.25C1492.71 1030.73 1489.4 1028.33 1484.56 1026.24L1484.47 1026.2L1484.37 1026.16C1479.91 1024.02 1474.24 1022.83 1467.17 1022.83H1428.92V1175.22H1384.68V979.812ZM1395.29 990.502V1164.53H1418.3V1012.14H1467.17C1475.33 1012.14 1482.62 1013.5 1488.84 1016.46C1494.62 1018.97 1499.4 1022.18 1502.86 1026.26C1506.29 1030.06 1508.76 1034.9 1510.45 1040.54C1512.03 1045.6 1513.04 1050.12 1513.34 1054C1513.61 1057.28 1513.74 1061.28 1513.74 1065.97V1164.53H1536.75V1065.59C1536.75 1048.91 1535.23 1035.89 1532.39 1026.33L1532.36 1026.25L1532.34 1026.18C1529.94 1017.16 1524.01 1009.17 1513.87 1002.29L1513.85 1002.27L1513.83 1002.26C1502.98 994.751 1484.11 990.502 1456.09 990.502H1395.29Z" fill="#284907"/>
<path fill-rule="evenodd" clip-rule="evenodd" d="M1300.11 986.65C1271.83 985.672 1250.13 994.103 1234.3 1011.48C1218.3 1029.04 1210.1 1052.16 1210.1 1081.36C1210.1 1107.3 1218.31 1128.06 1234.5 1144.13C1250.64 1160.15 1272.38 1168.38 1300.31 1168.38C1320.97 1168.38 1338.98 1162.79 1354.5 1151.66L1339.11 1136.41C1328.44 1143.4 1315.4 1146.74 1300.31 1146.74C1281.19 1146.74 1265.23 1140.35 1252.92 1127.39L1252.9 1127.37L1252.88 1127.34C1240.85 1114.38 1235.02 1097.6 1235.02 1077.51C1235.02 1058.46 1240.45 1041.86 1251.47 1028L1251.49 1027.97L1251.51 1027.95C1263.06 1013.75 1278.9 1006.75 1298.4 1006.75C1308.32 1006.75 1316.95 1008.97 1323.91 1013.82C1331.44 1018.8 1335.04 1026.5 1335.04 1035.95C1335.04 1049.15 1331.48 1059.88 1323.13 1066.66L1323.08 1066.7L1323.03 1066.74C1314.92 1073.03 1301.49 1075.55 1284.27 1075.55H1271.23V1094.49H1281.59C1308.96 1094.49 1328.51 1089.21 1341.13 1079.52C1353.47 1070.04 1359.96 1055.72 1359.96 1035.57C1359.96 1019.6 1354.99 1008.15 1345.64 1000.34C1336.08 992.349 1321.18 987.527 1300.11 986.65ZM1226.48 1004.25C1244.78 984.168 1269.69 974.898 1300.5 975.968L1300.51 975.968L1300.53 975.969C1322.75 976.891 1340.33 982.009 1352.42 992.107C1364.72 1002.38 1370.57 1017.16 1370.57 1035.57C1370.57 1058.26 1363.11 1076.08 1347.57 1088.02C1332.29 1099.75 1310.01 1105.18 1281.59 1105.18H1260.62V1064.86H1284.27C1301.12 1064.86 1311.37 1062.26 1316.51 1058.31C1321.39 1054.31 1324.43 1047.35 1324.43 1035.95C1324.43 1029.53 1322.19 1025.45 1318.05 1022.73L1317.98 1022.69L1317.91 1022.64C1313.17 1019.31 1306.8 1017.44 1298.4 1017.44C1281.74 1017.44 1269.06 1023.26 1259.73 1034.7C1250.38 1046.48 1245.63 1060.66 1245.63 1077.51C1245.63 1095.38 1250.75 1109.38 1260.61 1120.02C1270.71 1130.64 1283.78 1136.05 1300.31 1136.05C1315.48 1136.05 1327.37 1132.31 1336.42 1125.24L1340.08 1122.38L1370.55 1152.55L1365.94 1156.32C1347.36 1171.51 1325.4 1179.07 1300.31 1179.07C1270.17 1179.07 1245.55 1170.11 1227.05 1151.74C1208.6 1133.44 1199.49 1109.82 1199.49 1081.36C1199.49 1050.02 1208.35 1024.14 1226.48 1004.25Z" fill="#284907"/>
<path fill-rule="evenodd" clip-rule="evenodd" d="M1140.26 895.145H1185.26V1175.21H1090.16C1061.17 1175.21 1037.2 1165.92 1018.76 1147.06L1018.74 1147.05L1018.73 1147.04C1000.36 1127.99 991.248 1104.04 991.248 1075.58C991.248 1047.56 1000.67 1023.86 1019.55 1004.85C1038.59 985.667 1061.32 975.957 1087.49 975.957C1104.18 975.957 1119.84 980.035 1134.39 988.175L1137.12 989.702V1037.92L1128.71 1031.82C1116.94 1023.29 1103.27 1018.97 1087.49 1018.97C1073.72 1018.97 1062.12 1024.1 1052.4 1034.59C1043.05 1044.7 1038.16 1058.18 1038.16 1075.58C1038.16 1093.32 1042.84 1106.95 1051.7 1117.04C1060.69 1126.98 1073.27 1132.2 1090.16 1132.2H1140.26V895.145ZM1150.87 905.834V1142.88H1090.16C1070.9 1142.88 1055.22 1136.82 1043.83 1124.2L1043.8 1124.18L1043.78 1124.15C1032.79 1111.67 1027.55 1095.29 1027.55 1075.58C1027.55 1056.04 1033.1 1039.77 1044.63 1027.3L1044.64 1027.3C1056.31 1014.7 1070.69 1008.28 1087.49 1008.28C1101.79 1008.28 1114.83 1011.45 1126.5 1017.82V996.052C1114.33 989.778 1101.34 986.647 1087.49 986.647C1064.24 986.647 1044.18 995.152 1027.05 1012.4C1010.27 1029.3 1001.86 1050.24 1001.86 1075.58C1001.86 1101.51 1010.07 1122.71 1026.33 1139.57C1042.52 1156.12 1063.63 1164.52 1090.16 1164.52H1174.65V905.834H1150.87Z" fill="#284907"/>
<path fill-rule="evenodd" clip-rule="evenodd" d="M812.252 979.814H856.488V1089.06C856.488 1093.58 856.613 1097.41 856.854 1100.57C857.065 1103.09 857.834 1106.77 859.31 1111.73C860.648 1115.98 862.476 1119.39 864.716 1122.08C866.893 1124.45 870.273 1126.87 875.145 1129.21C879.647 1131.14 885.358 1132.2 892.446 1132.2H930.696V979.814H974.933V1175.22H903.526C875.018 1175.22 853.399 1171.01 839.789 1161.59C828.084 1153.64 820.164 1143.86 816.679 1132.16L816.656 1132.08L816.636 1132.01C813.667 1120.86 812.252 1106.62 812.252 1089.45V979.814ZM822.865 990.504V1089.45C822.865 1106.09 824.245 1119.28 826.866 1129.16C829.504 1137.95 835.581 1145.84 845.743 1152.74L845.763 1152.76L845.782 1152.77C856.627 1160.28 875.501 1164.53 903.526 1164.53H964.319V990.504H941.31V1142.89H892.446C884.3 1142.89 877.051 1141.67 870.87 1139L870.773 1138.96L870.679 1138.91C864.957 1136.17 860.237 1132.98 856.822 1129.23L856.751 1129.15L856.682 1129.07C853.356 1125.11 850.882 1120.35 849.178 1114.91L849.166 1114.88L849.155 1114.84C847.586 1109.57 846.575 1105.06 846.275 1101.43L846.274 1101.42L846.273 1101.4C846.004 1097.89 845.875 1093.77 845.875 1089.06V990.504H822.865Z" fill="#284907"/>
<path fill-rule="evenodd" clip-rule="evenodd" d="M750.186 935.713V979.83H801.767V1022.84H750.186V1096.77C750.186 1105.19 751.497 1111.75 753.83 1116.7C756.361 1121.55 759.803 1124.86 764.18 1126.88C769.443 1129.05 774.226 1130.44 778.547 1131.13C783.292 1131.84 789.245 1132.22 796.46 1132.22H801.767V1175.23H796.46C766.668 1175.23 743.575 1169.53 728.192 1157.13C712.435 1144.43 705.186 1123.81 705.186 1096.77V1022.84H663.676L750.186 935.713ZM689.299 1012.15H715.799V1096.77C715.799 1122.07 722.559 1138.9 734.822 1148.78C746.666 1158.33 765.166 1163.83 791.153 1164.48V1142.84C785.814 1142.69 781.072 1142.32 776.951 1141.7L776.931 1141.69L776.91 1141.69C771.584 1140.84 765.962 1139.17 760.064 1136.74L759.97 1136.7L759.877 1136.66C753.113 1133.56 747.939 1128.44 744.377 1121.56L744.335 1121.48L744.295 1121.4C741.048 1114.56 739.573 1106.27 739.573 1096.77V1012.15H791.153V990.519H739.573V961.52L689.299 1012.15Z" fill="#284907"/>
<path fill-rule="evenodd" clip-rule="evenodd" d="M587.08 905.834C565.775 905.834 549.061 911.004 536.465 920.871L536.441 920.89L536.416 920.909C524.298 930.176 517.881 944.433 517.881 964.755C517.881 981.093 522.534 994.896 531.713 1006.44C540.954 1018.06 555.053 1027.72 574.456 1035.19L574.494 1035.2L574.532 1035.22C575.663 1035.67 577.333 1036.28 579.588 1037.03L579.656 1037.06L579.724 1037.08C588.217 1040.19 595.505 1043.2 601.557 1046.11C607.914 1049.05 614.005 1052.52 619.828 1056.51C626.257 1060.75 631.317 1065.93 634.835 1072.11C638.44 1078.19 640.147 1085.18 640.147 1092.9C640.147 1108.66 633.896 1121.15 621.378 1129.66L621.342 1129.68L621.306 1129.7C609.253 1137.61 594.021 1141.35 576 1141.35H495.254V1164.52H577.146C583.729 1164.52 588.675 1164.39 592.051 1164.15L592.16 1164.14L592.269 1164.14C600.12 1163.9 608.144 1162.46 616.351 1159.79C624.774 1156.88 632.996 1152.75 641.02 1147.36C648.65 1142 654.973 1134.72 659.957 1125.41C664.857 1116 667.359 1105.33 667.359 1093.29C667.359 1082.2 665.891 1072.69 663.077 1064.66L663.069 1064.64L663.061 1064.62C660.252 1056.37 656.115 1049.85 650.74 1044.89C644.888 1039.49 639.125 1035.27 633.459 1032.18L633.385 1032.14L633.313 1032.1C627.518 1028.69 620.416 1025.35 611.96 1022.09C592.398 1014.83 576.578 1007.23 564.651 999.218L564.594 999.18L564.538 999.14C552.275 990.439 545.476 979.332 545.476 965.909C545.476 954.238 549.098 944.624 557.085 938.093C564.861 931.735 575.929 929.009 589.373 929.009H651.694V905.834H587.08ZM529.973 912.414C544.884 900.744 564.077 895.145 587.08 895.145H662.307V939.698H589.373C577.09 939.698 568.863 942.232 563.775 946.392C558.899 950.379 556.089 956.543 556.089 965.909C556.089 975.046 560.482 983.168 570.595 990.362C581.581 997.729 596.553 1004.99 615.66 1012.08L615.691 1012.09L615.721 1012.1C624.54 1015.49 632.178 1019.06 638.588 1022.82C645.123 1026.4 651.562 1031.15 657.912 1037.01C664.758 1043.33 669.788 1051.43 673.093 1061.13C676.387 1070.54 677.973 1081.29 677.973 1093.29C677.973 1106.88 675.131 1119.3 669.341 1130.4L669.328 1130.43L669.315 1130.45C663.612 1141.12 656.199 1149.74 647.044 1156.16L646.999 1156.19L646.954 1156.23C638.195 1162.11 629.127 1166.68 619.75 1169.92L619.706 1169.93L619.662 1169.95C610.601 1172.9 601.609 1174.54 592.699 1174.82C588.951 1175.08 583.744 1175.21 577.146 1175.21H484.641V1130.66H576C592.6 1130.66 605.63 1127.22 615.478 1120.77C624.843 1114.4 629.533 1105.35 629.533 1092.9C629.533 1086.79 628.193 1081.74 625.705 1077.56L625.676 1077.52L625.648 1077.47C623.062 1072.91 619.233 1068.89 613.984 1065.44L613.938 1065.41L613.893 1065.38C608.534 1061.7 602.935 1058.51 597.096 1055.81L597.056 1055.8L597.017 1055.78C591.375 1053.06 584.434 1050.18 576.164 1047.15C573.887 1046.39 572.027 1045.72 570.629 1045.16C550.059 1037.23 534.178 1026.63 523.43 1013.12C512.614 999.52 507.268 983.307 507.268 964.755C507.268 941.989 514.599 924.184 529.973 912.414Z" fill="#284907"/>
<path fill-rule="evenodd" clip-rule="evenodd" d="M402.27 905.834C387.741 905.834 375.677 906.972 365.992 909.167C356.799 911.25 348.472 915.76 340.967 922.841C330.201 933.233 324.666 947.02 324.666 964.755V1164.52H474.611V1141.35H349.968V1042.15H459.455V1018.97H349.968V969.757C349.968 956.857 353.842 946.295 362.377 939.105C370.731 932.068 382.684 929.009 397.303 929.009H487.347V905.834H402.27ZM363.662 898.738C374.354 896.315 387.252 895.145 402.27 895.145H497.96V939.698H397.303C383.904 939.698 374.842 942.54 369.186 947.304C363.712 951.916 360.581 959.056 360.581 969.757V1008.28H470.068V1052.84H360.581V1130.66H485.224V1175.21H314.053V964.755C314.053 944.532 320.482 927.795 333.647 915.1L333.667 915.081L333.688 915.062C342.479 906.76 352.485 901.271 363.662 898.738Z" fill="#284907"/>
<path d="M339.18 1273.7C330.828 1273.7 324.158 1271 319.17 1265.61C314.24 1260.21 311.775 1253.02 311.775 1244.03C311.775 1234.92 314.24 1227.7 319.17 1222.37C324.158 1216.97 330.828 1214.28 339.18 1214.28C347.648 1214.28 354.376 1216.97 359.364 1222.37C364.352 1227.7 366.846 1234.92 366.846 1244.03C366.846 1253.02 364.323 1260.21 359.277 1265.61C354.289 1271 347.59 1273.7 339.18 1273.7ZM356.928 1245.51C356.928 1241.33 356.377 1237.5 355.275 1234.02C354.231 1230.49 352.317 1227.47 349.533 1224.98C346.807 1222.42 343.414 1221.15 339.354 1221.15C333.96 1221.15 329.668 1223.06 326.478 1226.89C323.288 1230.66 321.693 1235.53 321.693 1241.51C321.693 1245.86 322.215 1249.86 323.259 1253.51C324.361 1257.17 326.275 1260.3 329.001 1262.91C331.785 1265.52 335.207 1266.82 339.267 1266.82C344.893 1266.82 349.243 1264.85 352.317 1260.91C355.391 1256.96 356.928 1251.83 356.928 1245.51ZM385.013 1235.5C389.131 1232.26 393.771 1230.63 398.933 1230.63C402.471 1230.63 405.342 1231.68 407.546 1233.76C409.75 1235.85 410.852 1239.22 410.852 1243.86C410.852 1244.49 410.794 1246.76 410.678 1250.64C410.62 1254.53 410.591 1257.37 410.591 1259.17C410.591 1263.92 411.345 1268.22 412.853 1272.04C411.055 1272.8 409.431 1273.17 407.981 1273.17C405.603 1273.17 403.921 1272.68 402.935 1271.7C401.949 1270.71 401.456 1268.85 401.456 1266.13C401.456 1263.11 401.514 1259.49 401.63 1255.25C401.746 1250.96 401.804 1248 401.804 1246.38C401.804 1243.19 401.166 1240.81 399.89 1239.24C398.614 1237.68 396.961 1236.9 394.931 1236.9C391.857 1236.9 388.667 1238.4 385.361 1241.42C385.477 1249.19 385.535 1254.85 385.535 1258.38C385.535 1263.95 385.709 1268.71 386.057 1272.65C384.491 1272.88 383.041 1273 381.707 1273C377.937 1273 376.052 1271.84 376.052 1269.52C376.052 1267.84 376.11 1265.11 376.226 1261.34C376.4 1257.57 376.487 1254.18 376.487 1251.16C376.487 1241.54 375.936 1235.21 374.834 1232.2C376.226 1231.56 377.734 1231.24 379.358 1231.24C381.04 1231.24 382.345 1231.5 383.273 1232.02C384.201 1232.55 384.781 1233.71 385.013 1235.5ZM436.102 1255.69C434.536 1255.69 432.419 1255.63 429.751 1255.51C430.331 1259.63 431.636 1262.65 433.666 1264.56C435.754 1266.48 438.306 1267.43 441.322 1267.43C442.888 1267.43 444.512 1267.03 446.194 1266.21C447.876 1265.4 449.123 1264.24 449.935 1262.73C452.777 1264.24 454.198 1265.87 454.198 1267.61C454.198 1269.58 452.835 1271.09 450.109 1272.13C447.383 1273.17 444.338 1273.7 440.974 1273.7C435.522 1273.7 430.65 1271.9 426.358 1268.3C422.124 1264.71 420.007 1259.52 420.007 1252.73C420.007 1245.6 422.037 1240.14 426.097 1236.37C430.215 1232.55 435.058 1230.63 440.626 1230.63C445.092 1230.63 448.688 1231.85 451.414 1234.29C454.198 1236.72 455.59 1239.62 455.59 1242.99C455.59 1245.71 455.068 1247.97 454.024 1249.77C453.038 1251.51 451.559 1252.79 449.587 1253.6C447.615 1254.41 445.614 1254.96 443.584 1255.25C441.554 1255.54 439.06 1255.69 436.102 1255.69ZM439.843 1236.98C437.117 1236.98 434.797 1238.03 432.883 1240.11C430.969 1242.2 429.838 1245.51 429.49 1250.03C433.202 1250.03 435.928 1249.95 437.668 1249.77C443.294 1249.08 446.107 1246.87 446.107 1243.16C446.107 1241.48 445.498 1240.03 444.28 1238.81C443.12 1237.59 441.641 1236.98 439.843 1236.98ZM500.064 1245.68C503.37 1245.68 505.951 1244.64 507.807 1242.55C509.663 1240.4 510.591 1237.53 510.591 1233.94C510.591 1229.01 509.547 1225.61 507.459 1223.76C505.371 1221.9 502.123 1220.97 497.715 1220.97C496.497 1220.97 494.728 1221.09 492.408 1221.32C492.64 1224.45 492.756 1229.85 492.756 1237.5V1244.2C494.67 1245.19 497.106 1245.68 500.064 1245.68ZM483.621 1252.73V1235.33C483.621 1227.33 483.244 1220.66 482.49 1215.32C486.956 1214.62 491.48 1214.28 496.062 1214.28C512.36 1214.28 520.509 1220.68 520.509 1233.5C520.509 1239.71 518.74 1244.44 515.202 1247.68C511.722 1250.93 507.604 1252.56 502.848 1252.56C498.962 1252.56 495.598 1251.63 492.756 1249.77V1255.77C492.756 1263.31 493.307 1268.85 494.409 1272.39C493.017 1272.86 491.248 1273.09 489.102 1273.09C486.84 1273.09 485.332 1272.71 484.578 1271.96C483.824 1271.2 483.447 1269.93 483.447 1268.13C483.447 1267.2 483.476 1264.91 483.534 1261.26C483.592 1257.6 483.621 1254.76 483.621 1252.73ZM530.928 1208.19C535.046 1208.19 537.105 1209.78 537.105 1212.97C537.105 1213.32 537.018 1214.68 536.844 1217.06C536.67 1219.38 536.496 1222.74 536.322 1227.15C536.206 1231.56 536.148 1236.46 536.148 1241.85C536.148 1252.99 536.264 1260.15 536.496 1263.34C536.728 1266.53 537.395 1269.43 538.497 1272.04C536.815 1272.8 535.104 1273.17 533.364 1273.17C530.87 1273.17 529.188 1272.65 528.318 1271.61C527.448 1270.51 527.013 1268.68 527.013 1266.13C527.129 1255.22 527.187 1247.22 527.187 1242.12C527.187 1224.54 526.926 1213.38 526.404 1208.62C528.028 1208.33 529.536 1208.19 530.928 1208.19ZM569.314 1260.39C569.314 1257.72 569.372 1255.66 569.488 1254.21C567.748 1254.44 566.472 1254.61 565.66 1254.73C564.906 1254.85 563.862 1255.02 562.528 1255.25C561.194 1255.48 560.208 1255.75 559.57 1256.04C558.99 1256.33 558.352 1256.67 557.656 1257.08C556.96 1257.49 556.467 1258.01 556.177 1258.65C555.887 1259.23 555.742 1259.92 555.742 1260.73C555.742 1263.05 556.322 1264.76 557.482 1265.87C558.642 1266.97 560.121 1267.52 561.919 1267.52C564.877 1267.52 567.4 1266.42 569.488 1264.21C569.372 1263.46 569.314 1262.18 569.314 1260.39ZM569.662 1248.9C569.662 1246.93 569.604 1245.42 569.488 1244.38C569.43 1243.33 569.198 1242.14 568.792 1240.81C568.444 1239.48 567.806 1238.52 566.878 1237.94C566.008 1237.3 564.819 1236.98 563.311 1236.98C561.397 1236.98 559.57 1237.62 557.83 1238.9C556.148 1240.11 554.93 1241.83 554.176 1244.03C549.014 1243.97 546.433 1242.43 546.433 1239.42C546.433 1236.92 548.173 1234.84 551.653 1233.15C555.191 1231.47 559.193 1230.63 563.659 1230.63C568.995 1230.63 572.881 1231.73 575.317 1233.94C577.811 1236.14 579.058 1240.09 579.058 1245.77C579.058 1245.94 579.029 1247.31 578.971 1249.86C578.913 1252.41 578.884 1254.9 578.884 1257.34C578.884 1263.95 579.435 1268.91 580.537 1272.22C578.855 1272.86 577.202 1273.17 575.578 1273.17C572.33 1273.17 570.387 1271.84 569.749 1269.17C566.269 1272.19 562.354 1273.7 558.004 1273.7C554.64 1273.7 551.827 1272.65 549.565 1270.56C547.361 1268.48 546.259 1265.4 546.259 1261.34C546.259 1258.09 546.955 1255.69 548.347 1254.12C549.739 1252.56 551.595 1251.4 553.915 1250.64C557.395 1249.54 562.644 1248.96 569.662 1248.9ZM588.762 1231.59C589.284 1231.53 590.589 1231.5 592.677 1231.5C592.561 1228.08 592.387 1225.15 592.155 1222.71C593.373 1222.48 594.794 1222.37 596.418 1222.37C600.42 1222.37 602.421 1223.44 602.421 1225.59C602.421 1226.98 602.334 1228.98 602.16 1231.59C608.424 1231.59 612.774 1231.41 615.21 1231.07C615.558 1231.7 615.732 1232.6 615.732 1233.76C615.732 1235.33 615.384 1236.4 614.688 1236.98C613.992 1237.5 612.89 1237.79 611.382 1237.85C609.642 1237.91 606.51 1237.94 601.986 1237.94C601.87 1243.39 601.812 1249.28 601.812 1255.6C601.812 1257.46 601.87 1258.99 601.986 1260.21C602.102 1261.43 602.363 1262.65 602.769 1263.87C603.175 1265.08 603.784 1266.01 604.596 1266.65C605.408 1267.23 606.452 1267.52 607.728 1267.52C609.526 1267.52 611.382 1266.5 613.296 1264.47C614.804 1266.16 615.558 1267.58 615.558 1268.74C615.558 1270.42 614.688 1271.67 612.948 1272.48C611.266 1273.29 609.352 1273.7 607.206 1273.7C597.52 1273.7 592.677 1268.42 592.677 1257.86C592.677 1255.14 592.677 1251.37 592.677 1246.55C592.735 1241.68 592.764 1238.78 592.764 1237.85C589.052 1238.08 586.413 1238.32 584.847 1238.55C584.615 1237.91 584.499 1236.95 584.499 1235.68C584.499 1234.17 584.818 1233.15 585.456 1232.63C586.152 1232.11 587.254 1231.76 588.762 1231.59ZM633.225 1228.63V1231.59C638.097 1231.59 641.809 1231.44 644.361 1231.15C644.651 1231.79 644.796 1232.72 644.796 1233.94C644.796 1235.39 644.448 1236.4 643.752 1236.98C643.056 1237.5 641.954 1237.79 640.446 1237.85C638.764 1237.91 636.357 1237.94 633.225 1237.94V1255.17C633.225 1262.82 633.776 1268.51 634.878 1272.22C633.602 1272.8 632.123 1273.09 630.441 1273.09C628.005 1273.09 626.323 1272.74 625.395 1272.04C624.525 1271.29 624.09 1270.07 624.09 1268.39C624.09 1265.26 624.119 1260.44 624.177 1253.95C624.235 1247.39 624.264 1242.09 624.264 1238.03C623.452 1238.03 621.219 1238.2 617.565 1238.55C617.333 1237.62 617.217 1236.55 617.217 1235.33C617.217 1234.11 617.536 1233.27 618.174 1232.81C618.812 1232.34 619.711 1231.99 620.871 1231.76C621.915 1231.65 623.046 1231.59 624.264 1231.59C624.38 1224.34 625.627 1219.03 628.005 1215.67C630.383 1212.25 634.588 1210.53 640.62 1210.53C642.94 1210.53 644.883 1210.94 646.449 1211.75C648.015 1212.51 648.798 1213.58 648.798 1214.97C648.798 1216.54 647.725 1218.19 645.579 1219.93C643.491 1218.02 641.316 1217.06 639.054 1217.06C637.43 1217.06 636.096 1217.7 635.052 1218.97C633.834 1220.66 633.225 1223.87 633.225 1228.63ZM679.182 1253.25C679.182 1248.61 678.196 1244.75 676.224 1241.68C674.31 1238.55 671.7 1236.98 668.394 1236.98C665.03 1236.98 662.42 1238.26 660.564 1240.81C658.708 1243.36 657.78 1246.76 657.78 1250.99C657.78 1255.69 658.708 1259.57 660.564 1262.65C662.478 1265.72 665.088 1267.26 668.394 1267.26C671.816 1267.26 674.455 1265.98 676.311 1263.43C678.225 1260.88 679.182 1257.49 679.182 1253.25ZM668.394 1273.7C662.362 1273.7 657.49 1271.75 653.778 1267.87C650.124 1263.92 648.297 1258.67 648.297 1252.12C648.297 1245.57 650.124 1240.35 653.778 1236.46C657.49 1232.57 662.362 1230.63 668.394 1230.63C674.484 1230.63 679.385 1232.57 683.097 1236.46C686.809 1240.35 688.665 1245.57 688.665 1252.12C688.665 1258.67 686.809 1263.92 683.097 1267.87C679.385 1271.75 674.484 1273.7 668.394 1273.7ZM700.935 1231.24C703.023 1231.24 704.502 1231.62 705.372 1232.37C706.3 1233.13 706.764 1234.31 706.764 1235.94V1236.98C710.128 1232.75 713.405 1230.63 716.595 1230.63C719.959 1230.63 721.641 1231.85 721.641 1234.29C721.641 1235.91 720.597 1238.03 718.509 1240.64C717.291 1239.59 715.928 1239.07 714.42 1239.07C711.462 1239.07 708.794 1240.67 706.416 1243.86C706.242 1247.57 706.155 1251.34 706.155 1255.17C706.155 1262.76 706.938 1268.39 708.504 1272.04C706.938 1272.8 705.227 1273.17 703.371 1273.17C700.877 1273.17 699.195 1272.62 698.325 1271.52C697.455 1270.42 697.02 1268.65 697.02 1266.21C697.02 1265.52 697.049 1263.55 697.107 1260.3C697.165 1257.05 697.194 1254.5 697.194 1252.64C697.194 1242.96 696.933 1235.97 696.411 1231.68C698.093 1231.39 699.601 1231.24 700.935 1231.24ZM727.592 1232.2L727.94 1231.94C729.506 1231.47 730.898 1231.24 732.116 1231.24C733.798 1231.24 735.103 1231.5 736.031 1232.02C736.959 1232.55 737.539 1233.71 737.771 1235.5C741.889 1232.26 746.529 1230.63 751.691 1230.63C756.737 1230.63 760.217 1232.49 762.131 1236.2C766.191 1232.49 771.063 1230.63 776.747 1230.63C780.285 1230.63 783.156 1231.68 785.36 1233.76C787.622 1235.85 788.753 1239.22 788.753 1243.86C788.753 1244.03 788.695 1246.18 788.579 1250.29C788.521 1254.35 788.492 1257.31 788.492 1259.17C788.492 1263.92 789.246 1268.22 790.754 1272.04C788.956 1272.8 787.303 1273.17 785.795 1273.17C783.417 1273.17 781.735 1272.68 780.749 1271.7C779.763 1270.71 779.27 1268.85 779.27 1266.13C779.27 1264.1 779.328 1260.65 779.444 1255.77C779.56 1250.9 779.618 1247.77 779.618 1246.38C779.618 1243.19 778.98 1240.81 777.704 1239.24C776.486 1237.68 774.862 1236.9 772.832 1236.9C769.7 1236.9 766.481 1238.4 763.175 1241.42C763.291 1249.19 763.349 1255.11 763.349 1259.17C763.349 1264.39 763.523 1268.88 763.871 1272.65C762.305 1272.88 760.884 1273 759.608 1273C755.78 1273 753.866 1271.84 753.866 1269.52C753.866 1268.53 753.982 1265.66 754.214 1260.91C754.446 1256.09 754.562 1251.25 754.562 1246.38C754.562 1243.19 753.924 1240.81 752.648 1239.24C751.372 1237.68 749.719 1236.9 747.689 1236.9C744.499 1236.9 741.309 1238.4 738.119 1241.42C738.235 1249.19 738.293 1254.85 738.293 1258.38C738.293 1263.95 738.467 1268.71 738.815 1272.65C737.249 1272.88 735.799 1273 734.465 1273C730.695 1273 728.81 1271.84 728.81 1269.52C728.81 1268.19 728.868 1265.61 728.984 1261.78C729.158 1257.89 729.245 1254.38 729.245 1251.25C729.245 1241.56 728.694 1235.21 727.592 1232.2ZM829.118 1246.2V1255.77C829.118 1263.49 829.669 1269.17 830.771 1272.83C829.147 1273.41 827.349 1273.7 825.377 1273.7C823.231 1273.7 821.752 1273.32 820.94 1272.57C820.186 1271.81 819.809 1270.54 819.809 1268.74C819.809 1267.81 819.838 1265.52 819.896 1261.86C819.954 1258.21 819.983 1255.37 819.983 1253.34V1235.24C819.983 1227.24 819.577 1220.71 818.765 1215.67C825.087 1215.15 831.554 1214.88 838.166 1214.88C846.75 1214.88 851.593 1215.32 852.695 1216.19C853.217 1216.71 853.478 1217.64 853.478 1218.97C853.478 1220.71 853.246 1222.28 852.782 1223.67C849.592 1222.45 844.546 1221.84 837.644 1221.84C834.86 1221.84 831.902 1221.93 828.77 1222.11C829.002 1223.9 829.118 1227.79 829.118 1233.76V1239.33H835.643C840.283 1239.33 843.589 1239.22 845.561 1238.98C845.793 1239.51 845.909 1240.43 845.909 1241.77C845.909 1243.39 845.619 1244.52 845.039 1245.16C844.459 1245.74 843.531 1246.06 842.255 1246.12C840.805 1246.18 838.862 1246.2 836.426 1246.2H829.118ZM882.493 1253.25C882.493 1248.61 881.507 1244.75 879.535 1241.68C877.621 1238.55 875.011 1236.98 871.705 1236.98C868.341 1236.98 865.731 1238.26 863.875 1240.81C862.019 1243.36 861.091 1246.76 861.091 1250.99C861.091 1255.69 862.019 1259.57 863.875 1262.65C865.789 1265.72 868.399 1267.26 871.705 1267.26C875.127 1267.26 877.766 1265.98 879.622 1263.43C881.536 1260.88 882.493 1257.49 882.493 1253.25ZM871.705 1273.7C865.673 1273.7 860.801 1271.75 857.089 1267.87C853.435 1263.92 851.608 1258.67 851.608 1252.12C851.608 1245.57 853.435 1240.35 857.089 1236.46C860.801 1232.57 865.673 1230.63 871.705 1230.63C877.795 1230.63 882.696 1232.57 886.408 1236.46C890.12 1240.35 891.976 1245.57 891.976 1252.12C891.976 1258.67 890.12 1263.92 886.408 1267.87C882.696 1271.75 877.795 1273.7 871.705 1273.7ZM904.247 1231.24C906.335 1231.24 907.814 1231.62 908.684 1232.37C909.612 1233.13 910.076 1234.31 910.076 1235.94V1236.98C913.44 1232.75 916.717 1230.63 919.907 1230.63C923.271 1230.63 924.953 1231.85 924.953 1234.29C924.953 1235.91 923.909 1238.03 921.821 1240.64C920.603 1239.59 919.24 1239.07 917.732 1239.07C914.774 1239.07 912.106 1240.67 909.728 1243.86C909.554 1247.57 909.467 1251.34 909.467 1255.17C909.467 1262.76 910.25 1268.39 911.816 1272.04C910.25 1272.8 908.539 1273.17 906.683 1273.17C904.189 1273.17 902.507 1272.62 901.637 1271.52C900.767 1270.42 900.332 1268.65 900.332 1266.21C900.332 1265.52 900.361 1263.55 900.419 1260.3C900.477 1257.05 900.506 1254.5 900.506 1252.64C900.506 1242.96 900.245 1235.97 899.723 1231.68C901.405 1231.39 902.913 1231.24 904.247 1231.24ZM980.654 1228.63C979.784 1226.43 978.16 1224.6 975.782 1223.15C973.404 1221.7 970.939 1220.97 968.387 1220.97C965.429 1220.97 962.935 1221.7 960.905 1223.15C958.933 1224.6 957.947 1226.75 957.947 1229.59C957.947 1231.33 958.498 1232.81 959.6 1234.02C960.702 1235.18 962.123 1236.11 963.863 1236.81C965.661 1237.45 967.604 1238.06 969.692 1238.64C971.838 1239.22 973.955 1239.88 976.043 1240.64C978.189 1241.39 980.132 1242.29 981.872 1243.33C983.67 1244.38 985.12 1245.89 986.222 1247.86C987.324 1249.83 987.875 1252.18 987.875 1254.9C987.875 1258.33 987.295 1261.31 986.135 1263.87C984.975 1266.36 983.351 1268.3 981.263 1269.69C979.233 1271.09 977.029 1272.1 974.651 1272.74C972.273 1273.38 969.692 1273.7 966.908 1273.7C962.094 1273.7 957.802 1272.83 954.032 1271.09C950.32 1269.35 948.464 1267.29 948.464 1264.91C948.464 1262.53 950.146 1260.56 953.51 1258.99C954.67 1261.2 956.671 1263.05 959.513 1264.56C962.355 1266.07 965.226 1266.82 968.126 1266.82C971.49 1266.82 974.274 1266.07 976.478 1264.56C978.74 1263 979.871 1260.65 979.871 1257.51C979.871 1255.66 979.117 1254.09 977.609 1252.82C976.159 1251.54 974.332 1250.58 972.128 1249.95C969.924 1249.31 967.517 1248.52 964.907 1247.6C962.297 1246.61 959.89 1245.57 957.686 1244.46C955.482 1243.3 953.626 1241.54 952.118 1239.16C950.668 1236.78 949.943 1233.91 949.943 1230.54C949.943 1225.38 951.886 1221.38 955.772 1218.54C959.658 1215.7 964.472 1214.28 970.214 1214.28C972.65 1214.28 975.086 1214.59 977.522 1215.23C979.958 1215.81 982.075 1216.8 983.873 1218.19C985.671 1219.52 986.57 1221.09 986.57 1222.89C986.57 1225.9 984.598 1227.82 980.654 1228.63ZM1015.83 1267.43C1017.39 1267.43 1019.02 1267.03 1020.7 1266.21C1022.38 1265.4 1023.63 1264.24 1024.44 1262.73C1027.28 1264.24 1028.7 1265.87 1028.7 1267.61C1028.7 1269.58 1027.34 1271.09 1024.61 1272.13C1021.89 1273.17 1018.84 1273.7 1015.48 1273.7C1012.99 1273.7 1010.52 1273.29 1008.08 1272.48C1005.71 1271.61 1003.47 1270.36 1001.39 1268.74C999.298 1267.11 997.616 1264.91 996.34 1262.13C995.122 1259.34 994.513 1256.15 994.513 1252.56C994.513 1245.36 996.601 1239.91 1000.78 1236.2C1004.95 1232.49 1009.71 1230.63 1015.04 1230.63C1018.29 1230.63 1021.37 1231.41 1024.27 1232.98C1027.22 1234.49 1028.7 1236.61 1028.7 1239.33C1028.7 1240.55 1028.09 1241.54 1026.88 1242.29C1025.66 1243.04 1024.01 1243.54 1021.92 1243.77C1021.45 1241.68 1020.41 1240.06 1018.79 1238.9C1017.16 1237.74 1015.51 1237.16 1013.83 1237.16C1011.04 1237.16 1008.72 1238.49 1006.87 1241.16C1005.01 1243.83 1004.08 1247.31 1004.08 1251.6C1004.08 1257.11 1005.16 1261.14 1007.3 1263.69C1009.51 1266.19 1012.35 1267.43 1015.83 1267.43ZM1062.1 1246.38C1062.1 1243.19 1061.46 1240.81 1060.19 1239.24C1058.91 1237.68 1057.26 1236.9 1055.23 1236.9C1052.04 1236.9 1048.85 1238.43 1045.66 1241.51C1045.71 1243.65 1045.74 1248.35 1045.74 1255.6C1045.8 1262.79 1046 1268.48 1046.35 1272.65C1044.79 1272.88 1043.34 1273 1042 1273C1038.23 1273 1036.35 1271.84 1036.35 1269.52C1036.35 1269.17 1036.38 1267.78 1036.43 1265.34C1036.55 1262.91 1036.64 1259.2 1036.7 1254.21C1036.75 1249.16 1036.78 1243.36 1036.78 1236.81C1036.78 1223.12 1036.52 1213.72 1036 1208.62C1037.62 1208.33 1039.13 1208.19 1040.52 1208.19C1044.64 1208.19 1046.7 1209.78 1046.7 1212.97C1046.7 1213.2 1046.61 1214.22 1046.44 1216.02C1046.32 1217.81 1046.18 1220.45 1046 1223.93C1045.83 1227.35 1045.74 1231.12 1045.74 1235.24C1049.75 1232.17 1054.24 1230.63 1059.23 1230.63C1062.77 1230.63 1065.64 1231.68 1067.84 1233.76C1070.05 1235.85 1071.15 1239.22 1071.15 1243.86C1071.15 1244.2 1071.12 1245.07 1071.06 1246.47C1071.06 1247.86 1071.03 1249.71 1070.97 1252.03C1070.92 1254.3 1070.89 1256.67 1070.89 1259.17C1070.89 1263.92 1071.64 1268.22 1073.15 1272.04C1071.35 1272.8 1069.73 1273.17 1068.28 1273.17C1065.9 1273.17 1064.22 1272.68 1063.23 1271.7C1062.24 1270.71 1061.75 1268.85 1061.75 1266.13C1061.75 1263.92 1061.81 1260.18 1061.93 1254.9C1062.04 1249.57 1062.1 1246.73 1062.1 1246.38ZM1111.8 1253.25C1111.8 1248.61 1110.82 1244.75 1108.84 1241.68C1106.93 1238.55 1104.32 1236.98 1101.01 1236.98C1097.65 1236.98 1095.04 1238.26 1093.18 1240.81C1091.33 1243.36 1090.4 1246.76 1090.4 1250.99C1090.4 1255.69 1091.33 1259.57 1093.18 1262.65C1095.1 1265.72 1097.71 1267.26 1101.01 1267.26C1104.44 1267.26 1107.08 1265.98 1108.93 1263.43C1110.85 1260.88 1111.8 1257.49 1111.8 1253.25ZM1101.01 1273.7C1094.98 1273.7 1090.11 1271.75 1086.4 1267.87C1082.74 1263.92 1080.92 1258.67 1080.92 1252.12C1080.92 1245.57 1082.74 1240.35 1086.4 1236.46C1090.11 1232.57 1094.98 1230.63 1101.01 1230.63C1107.1 1230.63 1112.01 1232.57 1115.72 1236.46C1119.43 1240.35 1121.29 1245.57 1121.29 1252.12C1121.29 1258.67 1119.43 1263.92 1115.72 1267.87C1112.01 1271.75 1107.1 1273.7 1101.01 1273.7ZM1158.79 1253.25C1158.79 1248.61 1157.8 1244.75 1155.83 1241.68C1153.91 1238.55 1151.3 1236.98 1148 1236.98C1144.63 1236.98 1142.02 1238.26 1140.17 1240.81C1138.31 1243.36 1137.38 1246.76 1137.38 1250.99C1137.38 1255.69 1138.31 1259.57 1140.17 1262.65C1142.08 1265.72 1144.69 1267.26 1148 1267.26C1151.42 1267.26 1154.06 1265.98 1155.92 1263.43C1157.83 1260.88 1158.79 1257.49 1158.79 1253.25ZM1148 1273.7C1141.97 1273.7 1137.09 1271.75 1133.38 1267.87C1129.73 1263.92 1127.9 1258.67 1127.9 1252.12C1127.9 1245.57 1129.73 1240.35 1133.38 1236.46C1137.09 1232.57 1141.97 1230.63 1148 1230.63C1154.09 1230.63 1158.99 1232.57 1162.7 1236.46C1166.41 1240.35 1168.27 1245.57 1168.27 1252.12C1168.27 1258.67 1166.41 1263.92 1162.7 1267.87C1158.99 1271.75 1154.09 1273.7 1148 1273.7ZM1180.54 1208.19C1184.66 1208.19 1186.72 1209.78 1186.72 1212.97C1186.72 1213.32 1186.63 1214.68 1186.46 1217.06C1186.28 1219.38 1186.11 1222.74 1185.93 1227.15C1185.82 1231.56 1185.76 1236.46 1185.76 1241.85C1185.76 1252.99 1185.88 1260.15 1186.11 1263.34C1186.34 1266.53 1187.01 1269.43 1188.11 1272.04C1186.43 1272.8 1184.72 1273.17 1182.98 1273.17C1180.48 1273.17 1178.8 1272.65 1177.93 1271.61C1177.06 1270.51 1176.62 1268.68 1176.62 1266.13C1176.74 1255.22 1176.8 1247.22 1176.8 1242.12C1176.8 1224.54 1176.54 1213.38 1176.02 1208.62C1177.64 1208.33 1179.15 1208.19 1180.54 1208.19ZM1273.63 1234.89V1255.17C1273.63 1263 1274.19 1268.74 1275.29 1272.39C1274.48 1272.86 1272.91 1273.09 1270.59 1273.09C1268.21 1273.09 1266.62 1272.71 1265.8 1271.96C1264.99 1271.2 1264.59 1269.93 1264.59 1268.13V1228.98C1260.76 1238.49 1255.89 1253.05 1249.97 1272.65C1249.04 1272.88 1247.97 1273 1246.75 1273C1243.74 1273 1241.88 1272.25 1241.18 1270.74C1239.44 1266.91 1236.86 1260.07 1233.44 1250.21C1230.02 1240.29 1227.44 1233.15 1225.7 1228.8V1255.17C1225.7 1263 1226.25 1268.74 1227.35 1272.39C1225.78 1272.86 1224.28 1273.09 1222.83 1273.09C1220.8 1273.09 1219.4 1272.71 1218.65 1271.96C1217.95 1271.2 1217.61 1269.93 1217.61 1268.13C1217.61 1267.2 1217.64 1264.91 1217.69 1261.26C1217.75 1257.6 1217.78 1254.76 1217.78 1252.73V1230.81C1217.78 1224.31 1217.23 1219.21 1216.13 1215.49C1218.45 1215.03 1220.51 1214.8 1222.3 1214.8C1225.61 1214.8 1228.13 1216.19 1229.87 1218.97C1232.08 1222.51 1234.22 1226.95 1236.31 1232.28C1238.46 1237.56 1240.08 1242.03 1241.18 1245.68C1242.34 1249.34 1243.94 1254.59 1245.97 1261.43C1250.84 1243.1 1256.23 1228.89 1262.15 1218.8C1263.66 1216.13 1266.12 1214.8 1269.55 1214.8C1271.81 1214.8 1273.69 1215.03 1275.2 1215.49C1274.16 1218.97 1273.63 1225.44 1273.63 1234.89ZM1306.52 1260.39C1306.52 1257.72 1306.58 1255.66 1306.69 1254.21C1304.95 1254.44 1303.68 1254.61 1302.87 1254.73C1302.11 1254.85 1301.07 1255.02 1299.73 1255.25C1298.4 1255.48 1297.41 1255.75 1296.78 1256.04C1296.2 1256.33 1295.56 1256.67 1294.86 1257.08C1294.17 1257.49 1293.67 1258.01 1293.38 1258.65C1293.09 1259.23 1292.95 1259.92 1292.95 1260.73C1292.95 1263.05 1293.53 1264.76 1294.69 1265.87C1295.85 1266.97 1297.33 1267.52 1299.12 1267.52C1302.08 1267.52 1304.61 1266.42 1306.69 1264.21C1306.58 1263.46 1306.52 1262.18 1306.52 1260.39ZM1306.87 1248.9C1306.87 1246.93 1306.81 1245.42 1306.69 1244.38C1306.64 1243.33 1306.4 1242.14 1306 1240.81C1305.65 1239.48 1305.01 1238.52 1304.08 1237.94C1303.21 1237.3 1302.02 1236.98 1300.52 1236.98C1298.6 1236.98 1296.78 1237.62 1295.04 1238.9C1293.35 1240.11 1292.14 1241.83 1291.38 1244.03C1286.22 1243.97 1283.64 1242.43 1283.64 1239.42C1283.64 1236.92 1285.38 1234.84 1288.86 1233.15C1292.4 1231.47 1296.4 1230.63 1300.86 1230.63C1306.2 1230.63 1310.09 1231.73 1312.52 1233.94C1315.02 1236.14 1316.26 1240.09 1316.26 1245.77C1316.26 1245.94 1316.23 1247.31 1316.18 1249.86C1316.12 1252.41 1316.09 1254.9 1316.09 1257.34C1316.09 1263.95 1316.64 1268.91 1317.74 1272.22C1316.06 1272.86 1314.41 1273.17 1312.78 1273.17C1309.54 1273.17 1307.59 1271.84 1306.95 1269.17C1303.47 1272.19 1299.56 1273.7 1295.21 1273.7C1291.85 1273.7 1289.03 1272.65 1286.77 1270.56C1284.57 1268.48 1283.46 1265.4 1283.46 1261.34C1283.46 1258.09 1284.16 1255.69 1285.55 1254.12C1286.94 1252.56 1288.8 1251.4 1291.12 1250.64C1294.6 1249.54 1299.85 1248.96 1306.87 1248.9ZM1336.32 1235.5C1340.44 1232.26 1345.08 1230.63 1350.24 1230.63C1353.78 1230.63 1356.65 1231.68 1358.85 1233.76C1361.06 1235.85 1362.16 1239.22 1362.16 1243.86C1362.16 1244.49 1362.1 1246.76 1361.99 1250.64C1361.93 1254.53 1361.9 1257.37 1361.9 1259.17C1361.9 1263.92 1362.65 1268.22 1364.16 1272.04C1362.36 1272.8 1360.74 1273.17 1359.29 1273.17C1356.91 1273.17 1355.23 1272.68 1354.24 1271.7C1353.26 1270.71 1352.76 1268.85 1352.76 1266.13C1352.76 1263.11 1352.82 1259.49 1352.94 1255.25C1353.05 1250.96 1353.11 1248 1353.11 1246.38C1353.11 1243.19 1352.47 1240.81 1351.2 1239.24C1349.92 1237.68 1348.27 1236.9 1346.24 1236.9C1343.16 1236.9 1339.97 1238.4 1336.67 1241.42C1336.78 1249.19 1336.84 1254.85 1336.84 1258.38C1336.84 1263.95 1337.02 1268.71 1337.36 1272.65C1335.8 1272.88 1334.35 1273 1333.01 1273C1329.24 1273 1327.36 1271.84 1327.36 1269.52C1327.36 1267.84 1327.42 1265.11 1327.53 1261.34C1327.71 1257.57 1327.79 1254.18 1327.79 1251.16C1327.79 1241.54 1327.24 1235.21 1326.14 1232.2C1327.53 1231.56 1329.04 1231.24 1330.67 1231.24C1332.35 1231.24 1333.65 1231.5 1334.58 1232.02C1335.51 1232.55 1336.09 1233.71 1336.32 1235.5ZM1394.37 1260.39C1394.37 1257.72 1394.43 1255.66 1394.54 1254.21C1392.8 1254.44 1391.53 1254.61 1390.72 1254.73C1389.96 1254.85 1388.92 1255.02 1387.58 1255.25C1386.25 1255.48 1385.26 1255.75 1384.63 1256.04C1384.05 1256.33 1383.41 1256.67 1382.71 1257.08C1382.02 1257.49 1381.52 1258.01 1381.23 1258.65C1380.94 1259.23 1380.8 1259.92 1380.8 1260.73C1380.8 1263.05 1381.38 1264.76 1382.54 1265.87C1383.7 1266.97 1385.18 1267.52 1386.97 1267.52C1389.93 1267.52 1392.46 1266.42 1394.54 1264.21C1394.43 1263.46 1394.37 1262.18 1394.37 1260.39ZM1394.72 1248.9C1394.72 1246.93 1394.66 1245.42 1394.54 1244.38C1394.49 1243.33 1394.25 1242.14 1393.85 1240.81C1393.5 1239.48 1392.86 1238.52 1391.93 1237.94C1391.06 1237.3 1389.87 1236.98 1388.37 1236.98C1386.45 1236.98 1384.63 1237.62 1382.89 1238.9C1381.2 1240.11 1379.99 1241.83 1379.23 1244.03C1374.07 1243.97 1371.49 1242.43 1371.49 1239.42C1371.49 1236.92 1373.23 1234.84 1376.71 1233.15C1380.25 1231.47 1384.25 1230.63 1388.71 1230.63C1394.05 1230.63 1397.94 1231.73 1400.37 1233.94C1402.87 1236.14 1404.11 1240.09 1404.11 1245.77C1404.11 1245.94 1404.08 1247.31 1404.03 1249.86C1403.97 1252.41 1403.94 1254.9 1403.94 1257.34C1403.94 1263.95 1404.49 1268.91 1405.59 1272.22C1403.91 1272.86 1402.26 1273.17 1400.63 1273.17C1397.39 1273.17 1395.44 1271.84 1394.8 1269.17C1391.32 1272.19 1387.41 1273.7 1383.06 1273.7C1379.7 1273.7 1376.88 1272.65 1374.62 1270.56C1372.42 1268.48 1371.31 1265.4 1371.31 1261.34C1371.31 1258.09 1372.01 1255.69 1373.4 1254.12C1374.79 1252.56 1376.65 1251.4 1378.97 1250.64C1382.45 1249.54 1387.7 1248.96 1394.72 1248.9ZM1431.65 1262.65C1430.14 1262.65 1428.61 1262.5 1427.04 1262.21C1425.07 1264.3 1424.08 1266.07 1424.08 1267.52C1424.08 1268.68 1425.82 1269.26 1429.3 1269.26H1439.22C1448.1 1269.26 1452.53 1272.57 1452.53 1279.18C1452.53 1283.76 1450.3 1287.47 1445.83 1290.31C1441.37 1293.16 1435.97 1294.58 1429.65 1294.58C1423.85 1294.58 1419.47 1293.56 1416.51 1291.53C1413.61 1289.56 1412.16 1287.12 1412.16 1284.22C1412.16 1280.92 1414.25 1277.84 1418.43 1275C1416.34 1273.78 1415.3 1272.36 1415.3 1270.74C1415.3 1269.64 1415.85 1268.13 1416.95 1266.21C1418.05 1264.3 1419.53 1262.53 1421.39 1260.91C1418.66 1259.75 1416.57 1257.92 1415.12 1255.43C1413.67 1252.93 1412.95 1250 1412.95 1246.64C1412.95 1242.06 1414.63 1238.23 1417.99 1235.16C1421.36 1232.08 1425.62 1230.54 1430.78 1230.54C1435.31 1230.54 1439.08 1231.59 1442.09 1233.68C1444.53 1230.6 1447.23 1229.07 1450.18 1229.07C1453.55 1229.07 1455.23 1230.57 1455.23 1233.59C1455.23 1234.46 1455.06 1235.45 1454.71 1236.55C1453.43 1236.26 1452.36 1236.11 1451.49 1236.11C1449.69 1236.11 1447.83 1236.52 1445.92 1237.33C1447.66 1240.17 1448.53 1243.28 1448.53 1246.64C1448.53 1251.51 1446.88 1255.4 1443.57 1258.3C1440.27 1261.2 1436.29 1262.65 1431.65 1262.65ZM1439.05 1247.34C1439.05 1244.38 1438.29 1241.91 1436.79 1239.94C1435.28 1237.91 1433.25 1236.9 1430.7 1236.9C1425.13 1236.9 1422.34 1239.91 1422.34 1245.94C1422.34 1248.9 1423.07 1251.37 1424.52 1253.34C1426.03 1255.25 1428.09 1256.21 1430.7 1256.21C1433.71 1256.21 1435.86 1255.48 1437.13 1254.03C1438.41 1252.58 1439.05 1250.35 1439.05 1247.34ZM1438.7 1276.48H1430.17C1427.16 1276.48 1424.95 1276.36 1423.56 1276.13C1421.71 1278.68 1420.78 1280.86 1420.78 1282.66C1420.78 1285.67 1423.94 1287.18 1430.26 1287.18C1434.96 1287.18 1438.53 1286.51 1440.96 1285.18C1443.4 1283.85 1444.62 1282.22 1444.62 1280.31C1444.62 1278.86 1444.12 1277.84 1443.14 1277.26C1442.15 1276.74 1440.67 1276.48 1438.7 1276.48ZM1476.11 1255.69C1474.54 1255.69 1472.43 1255.63 1469.76 1255.51C1470.34 1259.63 1471.64 1262.65 1473.67 1264.56C1475.76 1266.48 1478.31 1267.43 1481.33 1267.43C1482.89 1267.43 1484.52 1267.03 1486.2 1266.21C1487.88 1265.4 1489.13 1264.24 1489.94 1262.73C1492.78 1264.24 1494.2 1265.87 1494.2 1267.61C1494.2 1269.58 1492.84 1271.09 1490.12 1272.13C1487.39 1273.17 1484.34 1273.7 1480.98 1273.7C1475.53 1273.7 1470.66 1271.9 1466.36 1268.3C1462.13 1264.71 1460.01 1259.52 1460.01 1252.73C1460.01 1245.6 1462.04 1240.14 1466.1 1236.37C1470.22 1232.55 1475.06 1230.63 1480.63 1230.63C1485.1 1230.63 1488.69 1231.85 1491.42 1234.29C1494.2 1236.72 1495.6 1239.62 1495.6 1242.99C1495.6 1245.71 1495.07 1247.97 1494.03 1249.77C1493.04 1251.51 1491.57 1252.79 1489.59 1253.6C1487.62 1254.41 1485.62 1254.96 1483.59 1255.25C1481.56 1255.54 1479.07 1255.69 1476.11 1255.69ZM1479.85 1236.98C1477.12 1236.98 1474.8 1238.03 1472.89 1240.11C1470.98 1242.2 1469.84 1245.51 1469.5 1250.03C1473.21 1250.03 1475.93 1249.95 1477.67 1249.77C1483.3 1249.08 1486.11 1246.87 1486.11 1243.16C1486.11 1241.48 1485.5 1240.03 1484.29 1238.81C1483.13 1237.59 1481.65 1236.98 1479.85 1236.98ZM1503.37 1232.2L1503.72 1231.94C1505.28 1231.47 1506.68 1231.24 1507.89 1231.24C1509.58 1231.24 1510.88 1231.5 1511.81 1232.02C1512.74 1232.55 1513.32 1233.71 1513.55 1235.5C1517.67 1232.26 1522.31 1230.63 1527.47 1230.63C1532.52 1230.63 1536 1232.49 1537.91 1236.2C1541.97 1232.49 1546.84 1230.63 1552.53 1230.63C1556.06 1230.63 1558.93 1231.68 1561.14 1233.76C1563.4 1235.85 1564.53 1239.22 1564.53 1243.86C1564.53 1244.03 1564.47 1246.18 1564.36 1250.29C1564.3 1254.35 1564.27 1257.31 1564.27 1259.17C1564.27 1263.92 1565.02 1268.22 1566.53 1272.04C1564.73 1272.8 1563.08 1273.17 1561.57 1273.17C1559.2 1273.17 1557.51 1272.68 1556.53 1271.7C1555.54 1270.71 1555.05 1268.85 1555.05 1266.13C1555.05 1264.1 1555.11 1260.65 1555.22 1255.77C1555.34 1250.9 1555.4 1247.77 1555.4 1246.38C1555.4 1243.19 1554.76 1240.81 1553.48 1239.24C1552.26 1237.68 1550.64 1236.9 1548.61 1236.9C1545.48 1236.9 1542.26 1238.4 1538.95 1241.42C1539.07 1249.19 1539.13 1255.11 1539.13 1259.17C1539.13 1264.39 1539.3 1268.88 1539.65 1272.65C1538.08 1272.88 1536.66 1273 1535.39 1273C1531.56 1273 1529.64 1271.84 1529.64 1269.52C1529.64 1268.53 1529.76 1265.66 1529.99 1260.91C1530.22 1256.09 1530.34 1251.25 1530.34 1246.38C1530.34 1243.19 1529.7 1240.81 1528.43 1239.24C1527.15 1237.68 1525.5 1236.9 1523.47 1236.9C1520.28 1236.9 1517.09 1238.4 1513.9 1241.42C1514.01 1249.19 1514.07 1254.85 1514.07 1258.38C1514.07 1263.95 1514.25 1268.71 1514.59 1272.65C1513.03 1272.88 1511.58 1273 1510.24 1273C1506.47 1273 1504.59 1271.84 1504.59 1269.52C1504.59 1268.19 1504.65 1265.61 1504.76 1261.78C1504.94 1257.89 1505.02 1254.38 1505.02 1251.25C1505.02 1241.56 1504.47 1235.21 1503.37 1232.2ZM1590.38 1255.69C1588.81 1255.69 1586.7 1255.63 1584.03 1255.51C1584.61 1259.63 1585.91 1262.65 1587.94 1264.56C1590.03 1266.48 1592.58 1267.43 1595.6 1267.43C1597.17 1267.43 1598.79 1267.03 1600.47 1266.21C1602.15 1265.4 1603.4 1264.24 1604.21 1262.73C1607.06 1264.24 1608.48 1265.87 1608.48 1267.61C1608.48 1269.58 1607.11 1271.09 1604.39 1272.13C1601.66 1273.17 1598.62 1273.7 1595.25 1273.7C1589.8 1273.7 1584.93 1271.9 1580.64 1268.3C1576.4 1264.71 1574.29 1259.52 1574.29 1252.73C1574.29 1245.6 1576.32 1240.14 1580.38 1236.37C1584.49 1232.55 1589.34 1230.63 1594.9 1230.63C1599.37 1230.63 1602.97 1231.85 1605.69 1234.29C1608.48 1236.72 1609.87 1239.62 1609.87 1242.99C1609.87 1245.71 1609.35 1247.97 1608.3 1249.77C1607.32 1251.51 1605.84 1252.79 1603.87 1253.6C1601.89 1254.41 1599.89 1254.96 1597.86 1255.25C1595.83 1255.54 1593.34 1255.69 1590.38 1255.69ZM1594.12 1236.98C1591.4 1236.98 1589.08 1238.03 1587.16 1240.11C1585.25 1242.2 1584.12 1245.51 1583.77 1250.03C1587.48 1250.03 1590.21 1249.95 1591.95 1249.77C1597.57 1249.08 1600.39 1246.87 1600.39 1243.16C1600.39 1241.48 1599.78 1240.03 1598.56 1238.81C1597.4 1237.59 1595.92 1236.98 1594.12 1236.98ZM1627.82 1235.5C1631.94 1232.26 1636.58 1230.63 1641.74 1230.63C1645.28 1230.63 1648.15 1231.68 1650.35 1233.76C1652.56 1235.85 1653.66 1239.22 1653.66 1243.86C1653.66 1244.49 1653.6 1246.76 1653.49 1250.64C1653.43 1254.53 1653.4 1257.37 1653.4 1259.17C1653.4 1263.92 1654.15 1268.22 1655.66 1272.04C1653.86 1272.8 1652.24 1273.17 1650.79 1273.17C1648.41 1273.17 1646.73 1272.68 1645.74 1271.7C1644.76 1270.71 1644.26 1268.85 1644.26 1266.13C1644.26 1263.11 1644.32 1259.49 1644.44 1255.25C1644.55 1250.96 1644.61 1248 1644.61 1246.38C1644.61 1243.19 1643.97 1240.81 1642.7 1239.24C1641.42 1237.68 1639.77 1236.9 1637.74 1236.9C1634.67 1236.9 1631.48 1238.4 1628.17 1241.42C1628.29 1249.19 1628.34 1254.85 1628.34 1258.38C1628.34 1263.95 1628.52 1268.71 1628.87 1272.65C1627.3 1272.88 1625.85 1273 1624.52 1273C1620.75 1273 1618.86 1271.84 1618.86 1269.52C1618.86 1267.84 1618.92 1265.11 1619.03 1261.34C1619.21 1257.57 1619.3 1254.18 1619.3 1251.16C1619.3 1241.54 1618.74 1235.21 1617.64 1232.2C1619.03 1231.56 1620.54 1231.24 1622.17 1231.24C1623.85 1231.24 1625.15 1231.5 1626.08 1232.02C1627.01 1232.55 1627.59 1233.71 1627.82 1235.5ZM1663.77 1231.59C1664.29 1231.53 1665.6 1231.5 1667.69 1231.5C1667.57 1228.08 1667.4 1225.15 1667.17 1222.71C1668.38 1222.48 1669.8 1222.37 1671.43 1222.37C1675.43 1222.37 1677.43 1223.44 1677.43 1225.59C1677.43 1226.98 1677.34 1228.98 1677.17 1231.59C1683.43 1231.59 1687.78 1231.41 1690.22 1231.07C1690.57 1231.7 1690.74 1232.6 1690.74 1233.76C1690.74 1235.33 1690.39 1236.4 1689.7 1236.98C1689 1237.5 1687.9 1237.79 1686.39 1237.85C1684.65 1237.91 1681.52 1237.94 1677 1237.94C1676.88 1243.39 1676.82 1249.28 1676.82 1255.6C1676.82 1257.46 1676.88 1258.99 1677 1260.21C1677.11 1261.43 1677.37 1262.65 1677.78 1263.87C1678.19 1265.08 1678.79 1266.01 1679.61 1266.65C1680.42 1267.23 1681.46 1267.52 1682.74 1267.52C1684.54 1267.52 1686.39 1266.5 1688.31 1264.47C1689.81 1266.16 1690.57 1267.58 1690.57 1268.74C1690.57 1270.42 1689.7 1271.67 1687.96 1272.48C1686.28 1273.29 1684.36 1273.7 1682.22 1273.7C1672.53 1273.7 1667.69 1268.42 1667.69 1257.86C1667.69 1255.14 1667.69 1251.37 1667.69 1246.55C1667.75 1241.68 1667.77 1238.78 1667.77 1237.85C1664.06 1238.08 1661.42 1238.32 1659.86 1238.55C1659.63 1237.91 1659.51 1236.95 1659.51 1235.68C1659.51 1234.17 1659.83 1233.15 1660.47 1232.63C1661.16 1232.11 1662.26 1231.76 1663.77 1231.59Z" fill="#284907"/>
<path d="M419.619 846.863C421.743 845.15 422.085 842.024 420.383 839.885C418.683 837.747 415.58 837.401 413.454 839.115C409.18 842.566 403.211 842.561 398.933 839.114C396.81 837.401 393.709 837.743 392.005 839.886C390.304 842.026 390.646 845.15 392.772 846.864C396.724 850.053 401.459 851.646 406.195 851.646C410.93 851.646 415.667 850.051 419.619 846.863Z" fill="#284907"/>
<path d="M370.177 805.852C370.177 800.241 373.865 795.694 378.416 795.694C382.966 795.694 386.655 800.241 386.655 805.852C386.655 811.463 382.966 816.011 378.416 816.011C373.865 816.011 370.177 811.463 370.177 805.852Z" fill="#284907"/>
<path d="M425.733 805.852C425.733 800.241 429.422 795.694 433.973 795.694C438.523 795.694 442.212 800.241 442.212 805.852C442.212 811.463 438.523 816.011 433.973 816.011C429.422 816.011 425.733 811.463 425.733 805.852Z" fill="#284907"/>
<path fill-rule="evenodd" clip-rule="evenodd" d="M444.078 872.275C462.727 881.02 475.056 896.019 475.056 913.027C475.056 913.027 472.85 913.027 470.127 913.027C467.404 913.027 465.198 913.027 465.198 913.027C465.198 908.189 463.849 903.558 461.387 899.286L461.299 899.235C456.073 890.191 445.895 882.767 432.938 878.401C431.151 877.799 429.312 877.255 427.426 876.773C420.763 879.788 413.638 881.485 406.194 881.485C398.749 881.485 391.624 879.788 384.961 876.773C362.9 882.41 347.189 896.515 347.189 913.027V927.652C347.189 930.393 344.983 932.617 342.26 932.617C339.537 932.617 337.331 930.393 337.331 927.652V913.027C337.331 894.464 352.018 878.293 373.58 870.036C372.556 869.281 371.548 868.497 370.557 867.681H341.795C335.481 867.681 329.655 864.788 325.809 859.744C321.963 854.702 320.692 848.285 322.32 842.142L336.86 787.3C338.929 763.39 351.597 742.723 369.787 730.742V714.124C369.787 711.213 371.209 708.595 373.59 707.123C375.822 705.743 378.546 705.627 380.881 706.819L406.165 719.723C406.175 719.723 406.184 719.722 406.194 719.722C406.204 719.722 406.215 719.723 406.225 719.723L431.508 706.819C433.845 705.627 436.567 705.743 438.799 707.123C441.18 708.595 442.602 711.213 442.602 714.124V730.743C460.792 742.724 473.461 763.392 475.529 787.303L490.067 842.142C491.696 848.285 490.425 854.702 486.579 859.746C482.733 864.788 476.907 867.681 470.593 867.681H441.831C440.84 868.497 439.832 869.281 438.808 870.035C440.615 870.727 442.373 871.475 444.078 872.275ZM473.007 816.279L480.543 844.702C481.375 847.842 480.726 851.121 478.76 853.697C476.796 856.275 473.818 857.752 470.593 857.752H451.892C461.827 846.136 469.228 831.423 473.007 816.279ZM432.744 740.658L409.879 728.988L432.744 717.32V740.658ZM402.51 728.99L379.645 740.658V717.32L402.51 728.99ZM339.381 816.278C343.161 831.422 350.561 846.136 360.496 857.752H341.795C338.569 857.752 335.593 856.275 333.627 853.697C331.662 851.119 331.012 847.842 331.845 844.704L339.381 816.278ZM465.76 789.439C465.871 791.021 465.982 792.604 465.982 794.217C465.982 829.246 439.313 871.556 406.194 871.556C373.076 871.556 346.408 829.246 346.408 794.217C346.408 793.224 346.47 792.247 346.532 791.27C346.553 790.941 346.574 790.611 346.592 790.28C349.71 791.14 352.818 791.572 355.887 791.571C364.684 791.571 373.135 788.375 380.565 784.074C390.943 778.066 399.314 769.884 403.723 765.092C409.423 769.836 420.931 778.438 435.115 784.074C444.458 787.788 454.957 790.166 465.752 789.327L465.76 789.439Z" fill="#284907"/>
<path d="M585.008 839.118C589.26 842.552 595.2 842.549 599.445 839.118C601.573 837.405 604.673 837.748 606.377 839.887C608.077 842.027 607.737 845.151 605.613 846.866C601.672 850.046 596.948 851.636 592.228 851.636C587.504 851.636 582.781 850.046 578.84 846.866C576.715 845.151 576.375 842.027 578.076 839.887C579.78 837.746 582.877 837.402 585.008 839.118Z" fill="#284907"/>
<path d="M556.209 805.855C556.209 800.244 559.898 795.697 564.448 795.697C568.999 795.697 572.688 800.244 572.688 805.855C572.688 811.466 568.999 816.014 564.448 816.014C559.898 816.014 556.209 811.466 556.209 805.855Z" fill="#284907"/>
<path d="M611.766 805.855C611.766 800.244 615.454 795.697 620.005 795.697C624.556 795.697 628.245 800.244 628.245 805.855C628.245 811.466 624.556 816.014 620.005 816.014C615.454 816.014 611.766 811.466 611.766 805.855Z" fill="#284907"/>
<path fill-rule="evenodd" clip-rule="evenodd" d="M661.091 927.655V913.03C661.091 894.466 646.404 878.296 624.841 870.038C647.08 853.646 661.871 822.35 661.871 794.22C661.871 753.143 630.631 719.725 592.228 719.725C553.825 719.725 522.582 753.143 522.582 794.22C522.582 822.35 537.373 853.646 559.613 870.038L559.609 870.04L559.607 870.038C538.044 878.296 523.357 894.466 523.357 913.03L523.358 936.893H533.215V913.03C533.215 904.746 537.169 897.069 543.894 890.762L543.935 890.747C550.608 884.479 560.008 879.583 570.995 876.776C577.658 879.791 584.783 881.488 592.228 881.488C599.673 881.488 606.797 879.791 613.46 876.776C635.522 882.412 651.233 896.517 651.233 913.03V927.655C651.233 930.396 653.441 932.62 656.162 932.62C658.883 932.62 661.091 930.396 661.091 927.655ZM651.791 789.441C651.902 791.023 652.013 792.607 652.013 794.22C652.013 829.249 625.345 871.559 592.228 871.559C559.111 871.559 532.44 829.249 532.44 794.22C532.44 793.226 532.502 792.25 532.564 791.273C532.585 790.944 532.606 790.614 532.625 790.283C535.743 791.143 538.852 791.575 541.92 791.574C550.717 791.573 559.167 788.378 566.596 784.077C576.974 778.069 585.344 769.886 589.754 765.095C595.458 769.841 606.975 778.443 621.172 784.077C630.507 787.783 640.997 790.157 651.783 789.327L651.791 789.441Z" fill="#284907"/>
</svg>
